<?xml version="1.0" standalone="no"?>
<!DOCTYPE svg PUBLIC "-//W3C//DTD SVG 20010904//EN"
 "http://www.w3.org/TR/2001/REC-SVG-20010904/DTD/svg10.dtd">
<svg version="1.0" xmlns="http://www.w3.org/2000/svg"
 width="360.000000pt" height="360.000000pt" viewBox="0 0 360.000000 360.000000"
 preserveAspectRatio="xMidYMid meet">
<metadata>
Created by potrace 1.14, written by Peter Selinger 2001-2017
</metadata>
<g transform="translate(0.000000,360.000000) scale(0.100000,-0.100000)"
fill="#000000" stroke="none">
<path d="M2357 2264 c-4 -4 -1 -14 6 -22 9 -13 9 -14 0 -8 -9 5 -13 0 -13 -13
0 -31 0 -31 -37 -100 -26 -50 -31 -66 -21 -73 8 -6 5 -7 -11 -3 -16 5 -21 4
-17 -4 4 -6 1 -11 -8 -11 -9 0 -13 -6 -10 -14 3 -8 0 -17 -7 -22 -8 -4 -10 -3
-5 4 11 18 0 15 -52 -18 -27 -16 -66 -32 -88 -36 -21 -3 -46 -7 -54 -9 -22 -3
-18 -37 5 -42 11 -2 37 -4 57 -5 21 0 35 -5 32 -9 -3 -5 4 -9 15 -9 12 0 21
-4 21 -10 0 -5 6 -10 14 -10 8 0 16 -5 18 -11 3 -9 10 -9 26 0 31 16 28 24
-20 50 -32 17 -43 19 -50 9 -6 -10 -8 -10 -8 -1 0 7 15 20 33 29 56 30 87 57
87 78 0 15 3 17 8 8 10 -15 48 25 68 74 17 39 18 54 4 54 -5 0 -9 -5 -7 -11 1
-6 -5 -14 -13 -16 -12 -4 -12 -3 -2 5 8 5 13 13 13 18 -1 5 5 9 12 9 6 0 12
-10 11 -21 0 -14 4 -20 13 -17 7 3 13 -2 13 -10 0 -8 10 -22 23 -31 12 -9 16
-14 8 -10 -10 5 -12 3 -6 -5 14 -24 70 -81 78 -81 5 0 15 -7 24 -15 8 -9 18
-13 21 -10 4 3 0 11 -8 16 -13 9 -13 10 0 6 8 -2 15 -13 16 -24 1 -19 -3 -21
-50 -16 l-51 4 33 -20 c39 -25 41 -33 5 -27 -25 5 -26 4 -10 -8 9 -7 17 -19
17 -25 0 -7 4 -10 9 -6 5 3 13 0 16 -6 4 -5 13 -8 20 -5 7 2 21 -2 32 -9 17
-13 17 -17 -15 -77 -19 -35 -49 -92 -68 -128 -32 -63 -35 -66 -106 -95 l-73
-30 40 -6 c39 -5 39 -6 13 -13 -40 -12 -34 -26 10 -26 40 -1 155 -8 212 -15
37 -4 37 -3 -17 32 -16 11 -14 12 12 7 l30 -6 -35 31 c-19 17 -38 31 -42 31
-16 0 -7 29 10 34 15 4 125 9 158 7 7 -1 24 -26 38 -57 l27 -57 -37 -38 -37
-38 29 5 28 5 -24 -22 -25 -22 34 7 c18 3 40 6 48 6 8 0 11 4 8 10 -3 5 0 7 9
4 8 -3 30 -1 49 5 19 7 45 14 58 17 13 3 31 7 39 9 8 2 23 4 33 4 28 1 19 21
-10 21 -17 0 -23 4 -17 9 13 14 59 20 75 11 8 -5 19 -4 28 3 11 9 13 9 8 0 -5
-8 2 -11 22 -11 17 1 28 4 26 8 -2 4 7 5 22 2 18 -3 24 -1 19 6 -4 7 -2 10 7
6 18 -7 77 60 78 89 0 12 2 34 3 50 2 32 -9 35 -24 6 -26 -47 -113 -74 -161
-49 -25 14 -49 62 -44 90 7 36 33 69 60 76 35 9 55 -2 55 -29 0 -35 32 -67 61
-62 36 7 51 34 46 82 -13 124 -214 141 -301 26 -23 -31 -35 -124 -23 -175 5
-21 20 -49 33 -64 l25 -26 -33 7 c-18 4 -37 10 -42 13 -11 6 -196 389 -196
405 0 7 4 6 10 -3 5 -8 10 -13 11 -10 0 3 2 13 4 22 3 18 -17 30 -39 22 -8 -3
-17 0 -21 6 -5 8 -11 7 -23 -2 -9 -8 -13 -8 -9 -2 4 7 0 15 -9 18 -23 9 -31 7
-16 -3 11 -7 11 -9 -2 -14 -9 -4 -15 -3 -15 1 3 18 -2 32 -11 32 -5 0 -19 9
-31 21 -11 11 -27 18 -35 15 -9 -3 -12 -1 -9 4 4 6 -7 26 -24 45 -51 59 -71
107 -80 198 -1 5 -5 6 -10 3 -5 -4 -11 -1 -13 5 -2 5 -7 7 -11 3z m27 -60 c3
-8 2 -12 -4 -9 -6 3 -10 1 -10 -6 0 -7 -2 -10 -5 -7 -5 5 4 38 10 38 2 0 6 -7
9 -16z m-4 -44 c8 -5 11 -10 5 -10 -5 0 -17 5 -25 10 -8 5 -10 10 -5 10 6 0
17 -5 25 -10z m25 -30 c3 -5 1 -10 -4 -10 -6 0 -11 5 -11 10 0 6 2 10 4 10 3
0 8 -4 11 -10z m6 -43 c-10 -9 -11 -8 -5 6 3 10 9 15 12 12 3 -3 0 -11 -7 -18z
m-98 -14 c-5 -12 -3 -14 7 -8 9 5 11 4 6 -4 -4 -6 -12 -9 -17 -6 -12 8 -12 35
1 35 5 0 6 -7 3 -17z m148 -28 c5 4 6 -1 2 -10 -5 -13 -7 -14 -14 -3 -5 7 -8
18 -8 23 0 6 3 4 6 -3 2 -6 9 -10 14 -7z m29 -19 c0 -3 -4 -8 -10 -11 -5 -3
-10 -1 -10 4 0 6 5 11 10 11 6 0 10 -2 10 -4z m-265 -46 c3 -5 1 -10 -4 -10
-6 0 -11 5 -11 10 0 6 2 10 4 10 3 0 8 -4 11 -10z m-21 -16 c3 -8 2 -13 -3 -9
-5 3 -11 0 -13 -7 -3 -7 -7 -5 -11 6 -4 10 -3 15 3 11 6 -3 10 -1 10 4 0 16 7
13 14 -5z m-34 -24 c0 -5 -4 -10 -10 -10 -5 0 -10 5 -10 10 0 6 5 10 10 10 6
0 10 -4 10 -10z m-34 -27 c-4 -4 -12 -1 -19 7 -9 10 -9 11 1 6 7 -4 12 -2 13
6 0 11 2 11 6 0 3 -7 2 -16 -1 -19z m-50 2 c4 -8 11 -12 17 -8 6 4 7 1 2 -7
-6 -10 -11 -10 -20 3 -14 19 -30 23 -19 5 4 -7 3 -8 -5 -4 -12 8 -6 26 10 26
5 0 12 -7 15 -15z m114 -38 c11 -5 9 -6 -4 -4 -11 1 -21 9 -23 17 -3 10 -2 11
4 4 4 -6 15 -14 23 -17z m30 -17 c0 -5 -5 -10 -11 -10 -5 0 -7 5 -4 10 3 6 8
10 11 10 2 0 4 -4 4 -10z m415 -150 c21 -42 19 -46 -19 -42 l-35 4 16 34 c9
19 18 34 20 34 1 0 9 -13 18 -30z"/>
<path d="M2238 1836 c-10 -7 -16 -15 -13 -18 2 -2 -35 -3 -83 -3 -48 1 -93 0
-100 -3 -10 -3 -12 -45 -12 -178 l2 -174 101 2 101 3 -1 30 c-2 66 2 63 -63
60 -39 -1 -64 2 -70 11 -16 19 5 27 64 25 l51 -1 -2 32 c-1 18 -2 41 -2 50 -1
13 -12 17 -57 17 -31 0 -59 2 -62 5 -14 15 19 26 76 27 l62 1 0 38 c0 27 5 40
17 44 10 4 14 4 11 0 -4 -3 -3 -11 3 -18 5 -6 17 -22 27 -35 17 -22 19 -22 25
-6 6 13 3 16 -10 11 -14 -6 -15 -4 -6 5 18 18 35 2 22 -23 -8 -15 -8 -22 1
-28 7 -4 10 -12 6 -18 -3 -6 2 -15 11 -21 14 -8 15 -11 3 -11 -10 -1 -9 -4 5
-10 11 -5 15 -9 8 -9 -13 -1 -7 -60 8 -76 14 -14 31 9 34 47 3 38 30 105 52
130 9 10 13 24 10 33 -4 8 -2 15 3 15 6 0 10 -5 10 -11 0 -7 8 -1 19 12 16 21
27 43 18 37 -2 -2 -10 2 -18 8 -11 9 -20 5 -44 -19 -16 -17 -23 -28 -15 -23 8
4 2 -5 -15 -19 -16 -15 -23 -24 -15 -20 10 4 9 1 -2 -8 -20 -16 -24 -37 -7
-37 5 0 7 4 4 10 -4 6 1 7 11 3 11 -4 13 -8 6 -11 -7 -2 -9 -8 -6 -14 4 -5 -4
-4 -17 3 -13 7 -30 13 -38 14 -8 0 -15 6 -17 13 -1 7 0 8 3 2 2 -5 9 -10 14
-10 14 0 -18 57 -38 69 -10 6 -14 11 -10 11 4 0 -3 11 -17 25 -29 29 -26 28
-48 11z m247 -28 c-9 -6 -19 -7 -22 -4 -4 3 -1 6 6 6 7 0 9 4 6 10 -4 6 1 7
11 3 15 -6 15 -7 -1 -15z m-196 -33 c0 -5 -4 -3 -9 5 -5 8 -9 22 -9 30 0 16
17 -16 18 -35z m161 -15 c0 -5 -10 -14 -22 -20 -21 -10 -21 -10 -6 3 10 8 15
17 11 20 -3 4 -1 7 5 7 7 0 12 -4 12 -10z m-69 -70 c10 -6 19 -16 19 -23 0 -8
-4 -6 -10 3 -9 13 -11 13 -21 0 -9 -13 -10 -13 -6 2 3 9 1 19 -6 22 -7 2 -8 5
-4 5 5 1 17 -4 28 -9z m-1 -64 c0 -2 -7 -7 -16 -10 -8 -3 -12 -2 -9 4 6 10 25
14 25 6z"/>
<path d="M95 1809 c-12 -6 -27 -20 -34 -31 -14 -22 -17 -94 -6 -129 7 -20 55
-50 88 -56 30 -5 58 -23 52 -34 -10 -14 -58 -11 -83 7 -14 9 -33 14 -47 10
-20 -5 -23 -11 -21 -41 4 -45 11 -52 33 -34 16 13 17 12 5 -3 -11 -14 -10 -18
8 -28 11 -6 25 -8 30 -5 6 3 10 2 10 -2 0 -5 9 -9 20 -10 13 -1 18 2 13 10 -5
9 -3 9 8 0 12 -10 22 -9 50 6 38 20 58 65 53 120 -4 46 -35 75 -100 96 -57 18
-67 38 -20 42 16 1 35 -6 48 -19 13 -13 23 -17 30 -10 6 6 16 8 23 6 25 -10
15 62 -11 87 -27 25 -115 36 -149 18z"/>
<path d="M386 1797 c-51 -30 -76 -82 -76 -158 1 -68 26 -136 49 -131 7 1 10
-2 6 -7 -7 -12 51 -44 65 -36 5 3 12 1 15 -5 5 -7 11 -8 19 -1 7 6 17 6 26 1
15 -9 61 10 93 38 45 39 65 155 39 223 -34 88 -149 125 -236 76z m158 -90 c6
3 8 2 3 -2 -4 -5 0 -19 9 -32 32 -50 -21 -123 -90 -123 -36 0 -88 49 -88 82 0
42 38 88 73 88 18 0 28 4 24 10 -4 6 8 2 26 -9 18 -11 37 -17 43 -14z"/>
<path d="M685 1809 c-4 -5 -5 -85 -4 -179 l2 -170 97 0 c101 0 117 4 99 27 -6
7 -7 13 -2 13 16 0 10 50 -6 54 -9 2 -35 3 -59 2 -24 -1 -48 2 -55 6 -8 5 -12
46 -12 129 l0 122 -27 3 c-15 1 -30 -2 -33 -7z"/>
<path d="M928 1806 c0 -6 -2 -87 -2 -179 l-2 -168 31 3 30 3 3 173 c2 94 -1
173 -5 173 -37 6 -53 5 -55 -5z"/>
<path d="M1027 1800 c-2 -9 -2 -30 0 -46 4 -28 8 -31 46 -32 22 -1 42 -3 43
-5 1 -1 4 -58 6 -127 l3 -125 28 -3 c31 -4 29 -13 31 140 0 58 4 109 7 112 3
3 23 7 45 8 39 1 39 1 42 45 1 29 -2 43 -10 44 -7 1 -63 2 -125 3 -94 1 -112
-1 -116 -14z"/>
<path d="M1382 1806 c-18 -23 -113 -281 -116 -313 -2 -31 0 -33 29 -33 28 0
33 5 41 33 10 32 11 32 77 35 l66 3 15 -36 c12 -29 20 -35 45 -35 27 0 29 2
27 34 -2 19 -29 99 -60 178 -55 137 -59 143 -86 144 -16 1 -33 -3 -38 -10z
m52 -158 c6 -25 4 -28 -18 -26 -26 2 -26 6 -11 57 9 26 17 16 29 -31z"/>
<path d="M1614 1811 c-2 -2 -4 -82 -4 -178 l0 -173 30 0 c17 0 30 5 31 13 3
49 4 315 1 328 -3 15 -46 22 -58 10z"/>
<path d="M1745 1811 c-3 -2 -5 -82 -5 -177 0 -163 1 -172 20 -177 11 -3 20 -1
20 5 0 5 5 6 10 3 10 -6 14 17 11 69 -1 16 4 33 10 37 23 14 45 -3 73 -56 23
-41 36 -54 57 -57 24 -4 28 -1 32 26 3 21 -3 43 -19 67 -22 36 -22 36 -3 65
13 20 19 47 19 86 0 51 -3 59 -31 82 -17 14 -36 26 -42 27 -42 4 -149 4 -152
0z m145 -106 c19 -22 3 -35 -45 -35 -42 0 -45 2 -43 25 2 22 7 25 39 25 20 0
42 -7 49 -15z"/>
<path d="M3375 1793 c-32 -8 -84 -51 -101 -85 -23 -44 -16 -157 12 -195 33
-44 81 -67 142 -67 36 -1 57 4 60 12 2 7 8 9 14 6 11 -7 54 31 70 61 l11 20
-24 -20 -23 -20 19 30 c10 17 25 36 33 44 10 11 13 28 9 64 -15 119 -103 179
-222 150z m109 -113 c16 -16 1 -21 -60 -18 l-59 3 24 22 c19 17 28 20 54 12
17 -5 35 -13 41 -19z m51 -125 c-40 -19 -116 -19 -141 0 -17 13 -10 14 76 14
89 -1 93 -2 65 -14z"/>
</g>
</svg>
